<?xml version="1.0" encoding="UTF-8"?>
<!DOCTYPE svg PUBLIC "-//W3C//DTD SVG 1.1//EN" "http://www.w3.org/Graphics/SVG/1.1/DTD/svg11.dtd">
<svg xmlns="http://www.w3.org/2000/svg" version="1.1" width="500px" height="500px" style="shape-rendering:geometricPrecision; text-rendering:geometricPrecision; image-rendering:optimizeQuality; fill-rule:evenodd; clip-rule:evenodd" xmlns:xlink="http://www.w3.org/1999/xlink">
<g><path style="opacity:1" fill="#0d3c4c" d="M 355.5,84.5 C 354.142,86.7428 354.808,88.4095 357.5,89.5C 362.785,92.7829 366.118,97.4496 367.5,103.5C 364.595,113.952 358.262,116.785 348.5,112C 345.353,108.019 342.02,104.186 338.5,100.5C 333.642,104.525 328.642,108.358 323.5,112C 315.401,113.114 310.735,109.614 309.5,101.5C 310.036,99.0583 310.869,96.7249 312,94.5C 315.78,90.7091 319.613,87.0424 323.5,83.5C 319.431,79.6008 315.931,75.2674 313,70.5C 311.392,58.1043 316.559,53.6043 328.5,57C 332.71,61.0415 336.71,65.2082 340.5,69.5C 344.73,65.0998 349.397,61.2665 354.5,58C 366.196,57.0245 370.696,62.1912 368,73.5C 364.309,77.6895 360.143,81.3562 355.5,84.5 Z"/></g>
<g><path style="opacity:0.227" fill="#a0afb6" d="M 355.5,84.5 C 356.167,86.1667 356.833,87.8333 357.5,89.5C 354.808,88.4095 354.142,86.7428 355.5,84.5 Z"/></g>
<g><path style="opacity:1" fill="#08394a" d="M 140.5,91.5 C 140.414,92.4959 140.748,93.3292 141.5,94C 160.005,94.8288 178.338,94.6621 196.5,93.5C 211.161,78.2234 228.828,72.7234 249.5,77C 258.786,91.0964 261.786,106.43 258.5,123C 270.098,135.946 276.764,151.113 278.5,168.5C 277.868,176.573 278.535,184.24 280.5,191.5C 292.99,192.793 296.824,199.126 292,210.5C 289.913,211.794 287.746,212.961 285.5,214C 292.911,222.794 291.077,229.294 280,233.5C 274.498,232.293 269.164,230.626 264,228.5C 250.544,246.822 232.377,257.322 209.5,260C 182.833,260.667 156.167,260.667 129.5,260C 107.333,257.255 89.3334,247.255 75.5,230C 70.4618,230.675 65.4618,231.842 60.5,233.5C 48.8009,230.474 46.1342,223.974 52.5,214C 44.9707,210.735 42.4707,205.235 45,197.5C 48.4524,194.024 52.6191,192.024 57.5,191.5C 58.5,191.5 59.5,191.5 60.5,191.5C 60.5,183.833 60.5,176.167 60.5,168.5C 62.2357,151.113 68.9024,135.946 80.5,123C 78.453,110.243 79.6197,97.7428 84,85.5C 86.3148,77.67 91.4814,74.0033 99.5,74.5C 115.253,75.5549 128.92,81.2216 140.5,91.5 Z M 162.5,116.5 C 167.595,116.221 172.595,116.555 177.5,117.5C 179.625,122.743 182.958,127.077 187.5,130.5C 192.778,137.106 199.445,141.772 207.5,144.5C 208.78,145.931 210.447,146.598 212.5,146.5C 217.157,148.753 222.157,150.253 227.5,151C 235.493,151.5 243.493,151.666 251.5,151.5C 253.99,158.475 255.99,165.475 257.5,172.5C 257.5,176.167 257.5,179.833 257.5,183.5C 254.284,183.345 251.617,184.345 249.5,186.5C 246.749,188.549 245.416,191.382 245.5,195C 245.523,198.073 246.523,200.74 248.5,203C 239.026,206.23 236.693,212.23 241.5,221C 231.171,231.83 218.504,237.83 203.5,239C 180.833,239.667 158.167,239.667 135.5,239C 130.416,238.574 125.416,237.74 120.5,236.5C 117.241,234.847 113.907,233.181 110.5,231.5C 106.09,228.536 101.923,225.202 98,221.5C 98.4339,217.548 98.4339,213.548 98,209.5C 96.8415,206.507 94.6748,204.84 91.5,204.5C 91.3893,203.883 91.056,203.383 90.5,203C 93.3597,199.319 94.1931,195.152 93,190.5C 92.6232,189.058 91.7899,188.058 90.5,187.5C 89.5994,185.273 87.9328,184.273 85.5,184.5C 84.4324,183.566 83.099,183.232 81.5,183.5C 81.5,180.5 81.5,177.5 81.5,174.5C 81.9838,166.405 83.9838,158.738 87.5,151.5C 95.5069,151.666 103.507,151.5 111.5,151C 114.742,150.594 117.742,149.761 120.5,148.5C 133.379,145.733 144.046,139.4 152.5,129.5C 157.033,126.107 160.366,121.774 162.5,116.5 Z"/></g>
<g><path style="opacity:1" fill="#d59b2a" d="M 101.5,123.5 C 102.634,125.966 102.801,128.633 102,131.5C 99.2039,135.4 97.3706,139.4 96.5,143.5C 95.4826,140.972 94.3159,140.972 93,143.5C 92.3189,145.529 91.9856,147.529 92,149.5C 94.746,150.143 97.5794,150.476 100.5,150.5C 105.685,148.841 112.352,148.174 120.5,148.5C 117.742,149.761 114.742,150.594 111.5,151C 103.507,151.5 95.5069,151.666 87.5,151.5C 89.1247,143.607 93.2914,137.273 100,132.5C 101.149,129.607 101.649,126.607 101.5,123.5 Z"/></g>
<g><path style="opacity:0.996" fill="#e06438" d="M 187.5,130.5 C 189.924,131.03 192.257,131.864 194.5,133C 195.337,134.011 195.67,135.178 195.5,136.5C 200.608,137.624 204.608,140.291 207.5,144.5C 199.445,141.772 192.778,137.106 187.5,130.5 Z"/></g>
<g><path style="opacity:0.043" fill="#d4d0d0" d="M 162.5,116.5 C 162.5,116.167 162.5,115.833 162.5,115.5C 163.833,115.5 165.167,115.5 166.5,115.5C 169.833,115.5 173.167,115.5 176.5,115.5C 176.833,115.5 177.167,115.5 177.5,115.5C 177.5,116.167 177.5,116.833 177.5,117.5C 172.595,116.555 167.595,116.221 162.5,116.5 Z"/></g>
<g><path style="opacity:1" fill="#c9972d" d="M 126.5,107.5 C 128.902,109.909 131.569,111.909 134.5,113.5C 143.734,114.191 153.068,114.858 162.5,115.5C 162.5,115.833 162.5,116.167 162.5,116.5C 160.366,121.774 157.033,126.107 152.5,129.5C 152.169,125.495 153.503,122.162 156.5,119.5C 157.086,119.709 157.586,120.043 158,120.5C 158.49,119.207 158.657,117.873 158.5,116.5C 149.827,116.666 141.16,116.5 132.5,116C 131.584,115.626 130.75,115.126 130,114.5C 129.011,112.03 127.845,109.697 126.5,107.5 Z"/></g>
<g><path style="opacity:1" fill="#754938" d="M 205.5,113.5 C 205.389,114.117 205.056,114.617 204.5,115C 195.506,115.5 186.506,115.666 177.5,115.5C 177.167,115.5 176.833,115.5 176.5,115.5C 186.037,114.785 195.704,114.118 205.5,113.5 Z"/></g>
<g><path style="opacity:1" fill="#e54e17" d="M 212.5,146.5 C 210.447,146.598 208.78,145.931 207.5,144.5C 204.608,140.291 200.608,137.624 195.5,136.5C 195.67,135.178 195.337,134.011 194.5,133C 192.257,131.864 189.924,131.03 187.5,130.5C 182.958,127.077 179.625,122.743 177.5,117.5C 177.5,116.833 177.5,116.167 177.5,115.5C 186.506,115.666 195.506,115.5 204.5,115C 205.056,114.617 205.389,114.117 205.5,113.5C 206.833,112.833 208.167,112.167 209.5,111.5C 212.5,109.167 215.167,106.5 217.5,103.5C 221.651,101.756 225.818,100.089 230,98.5C 231.261,98.7591 232.261,99.4258 233,100.5C 234.716,99.4477 235.716,100.114 236,102.5C 236.145,112.203 236.311,121.87 236.5,131.5C 238.617,134.486 241.117,137.153 244,139.5C 244.333,141.167 244.667,142.833 245,144.5C 245.333,144.167 245.667,143.833 246,143.5C 246.304,145.441 247.137,147.107 248.5,148.5C 246.121,150.042 243.454,150.709 240.5,150.5C 231.217,149.167 221.884,147.833 212.5,146.5 Z"/></g>
<g><path style="opacity:1" fill="#1a3623" d="M 134.5,113.5 C 144.839,113.334 155.172,113.5 165.5,114C 166.056,114.383 166.389,114.883 166.5,115.5C 165.167,115.5 163.833,115.5 162.5,115.5C 153.068,114.858 143.734,114.191 134.5,113.5 Z"/></g>
<g><path style="opacity:1" fill="#907722" d="M 108.5,97.5 C 103.811,96.6837 101.311,98.6837 101,103.5C 100.335,110.195 100.502,116.862 101.5,123.5C 100.778,123.082 100.278,122.416 100,121.5C 99.0068,113.018 99.5068,104.684 101.5,96.5C 104.216,94.9139 106.55,95.2472 108.5,97.5 Z"/></g>
<g><path style="opacity:1" fill="#76402b" d="M 238.5,102.5 C 239.653,108.319 239.819,114.319 239,120.5C 238.722,121.416 238.222,122.082 237.5,122.5C 238.331,115.869 238.664,109.202 238.5,102.5 Z"/></g>
<g><path style="opacity:1" fill="#9f4f34" d="M 217.5,103.5 C 215.167,106.5 212.5,109.167 209.5,111.5C 211.167,107.833 213.833,105.167 217.5,103.5 Z"/></g>
<g><path style="opacity:1" fill="#f49f08" d="M 108.5,97.5 C 110.199,97.3398 111.866,97.5065 113.5,98C 115.063,99.9473 117.063,101.114 119.5,101.5C 122.339,102.806 124.672,104.806 126.5,107.5C 127.845,109.697 129.011,112.03 130,114.5C 130.75,115.126 131.584,115.626 132.5,116C 141.16,116.5 149.827,116.666 158.5,116.5C 158.657,117.873 158.49,119.207 158,120.5C 157.586,120.043 157.086,119.709 156.5,119.5C 153.503,122.162 152.169,125.495 152.5,129.5C 144.046,139.4 133.379,145.733 120.5,148.5C 112.352,148.174 105.685,148.841 100.5,150.5C 97.5794,150.476 94.746,150.143 92,149.5C 91.9856,147.529 92.3189,145.529 93,143.5C 94.3159,140.972 95.4826,140.972 96.5,143.5C 97.3706,139.4 99.2039,135.4 102,131.5C 102.801,128.633 102.634,125.966 101.5,123.5C 100.502,116.862 100.335,110.195 101,103.5C 101.311,98.6837 103.811,96.6837 108.5,97.5 Z"/></g>
<g><path style="opacity:1" fill="#9e5032" d="M 237.5,100.5 C 236.733,99.828 236.066,98.9947 235.5,98C 233.19,97.5034 230.857,97.3367 228.5,97.5C 230.851,95.7971 233.518,95.2971 236.5,96C 237.38,97.3561 237.714,98.8561 237.5,100.5 Z"/></g>
<g><path style="opacity:1" fill="#334328" d="M 119.5,101.5 C 117.063,101.114 115.063,99.9473 113.5,98C 111.866,97.5065 110.199,97.3398 108.5,97.5C 106.55,95.2472 104.216,94.9139 101.5,96.5C 102.694,95.2227 104.36,94.5561 106.5,94.5C 110.743,95.3873 114.743,96.8873 118.5,99C 119.252,99.6708 119.586,100.504 119.5,101.5 Z"/></g>
<g><path style="opacity:0.09" fill="#aec6d1" d="M 140.5,91.5 C 141.289,91.7828 141.956,92.2828 142.5,93C 160.497,93.4999 178.497,93.6666 196.5,93.5C 178.338,94.6621 160.005,94.8288 141.5,94C 140.748,93.3292 140.414,92.4959 140.5,91.5 Z"/></g>
<g><path style="opacity:1" fill="#07394a" d="M 377.5,113.5 C 401.082,111.268 414.415,121.768 417.5,145C 414.585,167.907 401.585,178.24 378.5,176C 355.958,167.734 348.791,152.234 357,129.5C 361.99,121.662 368.823,116.329 377.5,113.5 Z M 382.5,134.5 C 392.429,134.025 396.595,138.691 395,148.5C 391.179,155.782 385.679,157.282 378.5,153C 372.9,145.306 374.233,139.139 382.5,134.5 Z"/></g>
<g><path style="opacity:0.784" fill="#c6562c" d="M 228.5,97.5 C 230.857,97.3367 233.19,97.5034 235.5,98C 236.066,98.9947 236.733,99.828 237.5,100.5C 237.833,101.167 238.167,101.833 238.5,102.5C 238.664,109.202 238.331,115.869 237.5,122.5C 237.183,125.572 237.516,128.572 238.5,131.5C 244.549,137.184 248.883,143.851 251.5,151.5C 243.493,151.666 235.493,151.5 227.5,151C 222.157,150.253 217.157,148.753 212.5,146.5C 221.884,147.833 231.217,149.167 240.5,150.5C 243.454,150.709 246.121,150.042 248.5,148.5C 247.137,147.107 246.304,145.441 246,143.5C 245.667,143.833 245.333,144.167 245,144.5C 244.667,142.833 244.333,141.167 244,139.5C 241.117,137.153 238.617,134.486 236.5,131.5C 236.311,121.87 236.145,112.203 236,102.5C 235.716,100.114 234.716,99.4477 233,100.5C 232.261,99.4258 231.261,98.7591 230,98.5C 225.818,100.089 221.651,101.756 217.5,103.5C 220.152,99.8912 223.819,97.8912 228.5,97.5 Z"/></g>
<g><path style="opacity:0.984" fill="#415d68" d="M 133.5,166.5 C 138.277,168.035 140.61,171.368 140.5,176.5C 141.022,181.471 139.022,184.804 134.5,186.5C 135.029,184.417 136.029,182.583 137.5,181C 137.043,180.586 136.709,180.086 136.5,179.5C 137.274,178.289 138.107,178.289 139,179.5C 139.667,177.167 139.667,174.833 139,172.5C 136.833,171 134.667,169.5 132.5,168C 133.056,167.617 133.389,167.117 133.5,166.5 Z"/></g>
<g><path style="opacity:1" fill="#103d4e" d="M 227.5,170.5 C 229.529,172.858 231.529,175.192 233.5,177.5C 235.422,183.182 233.755,187.682 228.5,191C 224.973,191.808 221.64,191.641 218.5,190.5C 216.485,189.076 214.152,188.41 211.5,188.5C 199.438,187.033 195.604,180.699 200,169.5C 202.402,167.307 205.236,165.974 208.5,165.5C 214.993,166.706 221.326,168.373 227.5,170.5 Z"/></g>
<g><path style="opacity:0.027" fill="#b4c1d1" d="M 227.5,170.5 C 230.946,171.612 232.946,173.945 233.5,177.5C 231.529,175.192 229.529,172.858 227.5,170.5 Z"/></g>
<g><path style="opacity:1" fill="#0e3c4c" d="M 133.5,166.5 C 133.389,167.117 133.056,167.617 132.5,168C 134.667,169.5 136.833,171 139,172.5C 139.667,174.833 139.667,177.167 139,179.5C 138.107,178.289 137.274,178.289 136.5,179.5C 136.709,180.086 137.043,180.586 137.5,181C 136.029,182.583 135.029,184.417 134.5,186.5C 127.242,189.744 119.575,191.244 111.5,191C 104.859,187.251 103.193,182.084 106.5,175.5C 108.5,174.167 110.167,172.5 111.5,170.5C 118.648,167.539 125.981,166.206 133.5,166.5 Z"/></g>
<g><path style="opacity:0.322" fill="#8aa8ae" d="M 111.5,170.5 C 110.167,172.5 108.5,174.167 106.5,175.5C 107.167,172.833 108.833,171.167 111.5,170.5 Z"/></g>
<g><path style="opacity:0.044" fill="#cde7eb" d="M 81.5,174.5 C 81.5,177.5 81.5,180.5 81.5,183.5C 83.099,183.232 84.4324,183.566 85.5,184.5C 83.8333,184.5 82.1667,184.5 80.5,184.5C 80.1872,180.958 80.5206,177.625 81.5,174.5 Z"/></g>
<g><path style="opacity:0.267" fill="#88a6ad" d="M 60.5,168.5 C 60.5,176.167 60.5,183.833 60.5,191.5C 59.5,191.5 58.5,191.5 57.5,191.5C 59.0984,183.922 60.0984,176.255 60.5,168.5 Z"/></g>
<g><path style="opacity:0.184" fill="#a3c0c9" d="M 278.5,168.5 C 279.196,176.067 279.863,183.734 280.5,191.5C 278.535,184.24 277.868,176.573 278.5,168.5 Z"/></g>
<g><path style="opacity:0.412" fill="#9fb9c2" d="M 257.5,172.5 C 258.483,176.298 258.817,180.298 258.5,184.5C 255.402,184.756 252.402,185.422 249.5,186.5C 251.617,184.345 254.284,183.345 257.5,183.5C 257.5,179.833 257.5,176.167 257.5,172.5 Z"/></g>
<g><path style="opacity:0.251" fill="#7a909d" d="M 150.5,189.5 C 163.323,188.505 176.323,188.171 189.5,188.5C 189.737,189.791 189.404,190.791 188.5,191.5C 176.211,189.52 163.544,188.853 150.5,189.5 Z"/></g>
<g><path style="opacity:0.071" fill="#93adb5" d="M 211.5,188.5 C 214.152,188.41 216.485,189.076 218.5,190.5C 215.848,190.59 213.515,189.924 211.5,188.5 Z"/></g>
<g><path style="opacity:1" fill="#0e3c4c" d="M 150.5,189.5 C 163.544,188.853 176.211,189.52 188.5,191.5C 187.411,202.896 181.077,208.563 169.5,208.5C 156.808,208.475 150.475,202.142 150.5,189.5 Z"/></g>
<g><path style="opacity:0.914" fill="#4c6a75" d="M 90.5,187.5 C 91.7899,188.058 92.6232,189.058 93,190.5C 94.1931,195.152 93.3597,199.319 90.5,203C 91.056,203.383 91.3893,203.883 91.5,204.5C 90.3509,204.209 89.6842,203.376 89.5,202C 91.3861,200.093 92.3861,197.76 92.5,195C 92.2612,192.365 91.5945,189.865 90.5,187.5 Z"/></g>
<g><path style="opacity:0.29" fill="#738e9b" d="M 110.5,231.5 C 113.907,233.181 117.241,234.847 120.5,236.5C 116.253,236.327 112.92,234.661 110.5,231.5 Z"/></g>
<g><path style="opacity:1" fill="#0b3b4c" d="M 159.5,282.5 C 187.64,282.798 199.806,296.798 196,324.5C 187.365,342.938 173.199,349.438 153.5,344C 135.493,335.483 129.326,321.649 135,302.5C 140.041,291.956 148.207,285.289 159.5,282.5 Z M 163.5,303.5 C 173.282,304.733 176.782,310.066 174,319.5C 170.746,324.223 166.246,325.723 160.5,324C 154.662,318.625 153.995,312.625 158.5,306C 160.315,305.243 161.981,304.41 163.5,303.5 Z"/></g>
<g><path style="opacity:1" fill="#0b3b4c" d="M 102.5,351.5 C 125.8,349.812 138.8,360.479 141.5,383.5C 138.813,406.681 125.813,417.181 102.5,415C 84.0434,408.265 76.2101,395.099 79,375.5C 82.7517,363.398 90.5851,355.398 102.5,351.5 Z M 106.5,373.5 C 117.865,372.689 122.032,377.689 119,388.5C 111.806,395.614 105.472,394.948 100,386.5C 98.4934,380.179 100.66,375.846 106.5,373.5 Z"/></g>
<g><path style="opacity:1" fill="#093a4b" d="M 189.5,366.5 C 193.792,366.035 197.792,366.868 201.5,369C 205.044,372.375 208.377,375.875 211.5,379.5C 215.833,376 220.167,372.5 224.5,369C 233.138,366.813 238.471,369.979 240.5,378.5C 240.237,381.028 239.404,383.361 238,385.5C 233.686,388.647 229.852,392.314 226.5,396.5C 229.81,400.978 233.31,405.311 237,409.5C 238.979,420.855 234.146,425.688 222.5,424C 217.658,420.324 213.325,416.158 209.5,411.5C 204.894,415.614 199.894,419.114 194.5,422C 183.321,422.471 179.154,417.305 182,406.5C 186.042,402.29 190.208,398.29 194.5,394.5C 192.229,390.726 189.396,387.393 186,384.5C 181.197,377.393 182.364,371.393 189.5,366.5 Z"/></g>
<g><path style="opacity:1" fill="#09394a" d="M 296.5,404.5 C 296.573,402.973 295.906,401.973 294.5,401.5C 283.739,384.642 276.906,366.309 274,346.5C 273.442,326.116 280.275,308.616 294.5,294C 306.296,284.718 319.63,281.384 334.5,284C 349.478,287.092 362.811,293.425 374.5,303C 390.084,302.521 405.417,304.188 420.5,308C 453.776,321.121 463.276,344.288 449,377.5C 440.443,397.723 426.61,413.223 407.5,424C 383.553,437.404 357.886,443.737 330.5,443C 325.367,440.346 320.867,436.846 317,432.5C 309.538,423.551 302.704,414.218 296.5,404.5 Z"/></g>
<g><path style="opacity:1" fill="#b098b5" d="M 367.5,323.5 C 380.927,322.991 394.26,323.824 407.5,326C 411.109,326.701 414.442,327.868 417.5,329.5C 400.969,325.463 384.303,323.463 367.5,323.5 Z"/></g>
<g><path style="opacity:1" fill="#efafcf" d="M 367.5,323.5 C 384.303,323.463 400.969,325.463 417.5,329.5C 427.931,332.424 433.264,339.257 433.5,350C 429.231,378.955 413.565,399.289 386.5,411C 370.348,418.93 353.348,422.43 335.5,421.5C 315.71,399.922 302.21,374.922 295,346.5C 293.644,327.521 301.144,313.354 317.5,304C 326.55,302.953 335.217,304.286 343.5,308C 351.921,312.602 359.921,317.769 367.5,323.5 Z"/></g>
<g><path style="opacity:0.004" fill="#d3e0e3" d="M 294.5,401.5 C 295.906,401.973 296.573,402.973 296.5,404.5C 295.094,404.027 294.427,403.027 294.5,401.5 Z"/></g>
</svg>
